<svg width="41" height="41" viewBox="0 0 41 41" fill="none" xmlns="http://www.w3.org/2000/svg">
<rect x="0.393555" y="0.309509" width="40" height="40" rx="20" fill="#3056D3"/>
<g clip-path="url(#clip0)">
<path d="M15.6313 19.447C15.2563 19.072 14.7313 19.072 14.5063 19.5595L8.8438 30.922C8.6188 31.3345 8.9563 31.9345 9.4813 31.9345H17.3938C17.6563 31.9345 17.9188 31.7845 18.0313 31.5595C19.7188 27.997 18.6688 22.6345 15.6313 19.447ZM19.8313 9.0595C14.3563 17.8345 19.4563 24.847 22.7938 31.5595C22.9063 31.7845 23.1688 31.9345 23.4313 31.9345H31.3438C31.8688 31.9345 32.2063 31.4095 31.9813 30.922C31.9813 30.922 21.3688 9.5845 21.1063 9.0595C20.7688 8.572 20.1313 8.572 19.8313 9.0595Z" fill="white"/>
</g>
<defs>
<clipPath id="clip0">
<rect width="24" height="24" fill="white" transform="translate(8.39355 8.30951)"/>
</clipPath>
</defs>
</svg>
